<?xml version="1.0" encoding="UTF-8"?>
<svg width="20px" height="20px" viewBox="0 0 20 20" xmlns="http://www.w3.org/2000/svg" xmlns:xlink="http://www.w3.org/1999/xlink" version="1.1">
 <!-- Generated by Pixelmator Pro 2.0.3 -->
 <path id="Path" d="M19.327 6.566 C19.327 2.227 16.484 0.956 16.484 0.956 15.051 0.298 12.59 0.021 10.033 0 L9.97 0 C7.413 0.021 4.954 0.298 3.52 0.956 3.52 0.956 0.677 2.228 0.677 6.566 0.677 7.559 0.658 8.747 0.689 10.007 0.792 14.25 1.467 18.432 5.39 19.47 7.199 19.949 8.752 20.049 10.002 19.98 12.27 19.854 13.543 19.171 13.543 19.171 L13.468 17.525 C13.468 17.525 11.847 18.036 10.027 17.974 8.223 17.912 6.32 17.78 6.028 15.565 6 15.359 5.987 15.152 5.988 14.944 5.988 14.944 7.758 15.377 10.002 15.48 11.374 15.543 12.66 15.4 13.967 15.244 16.473 14.945 18.655 13.401 18.929 11.99 19.363 9.767 19.327 6.566 19.327 6.566 Z M15.974 12.156 L13.893 12.156 13.893 7.057 C13.893 5.982 13.441 5.437 12.536 5.437 11.536 5.437 11.035 6.084 11.035 7.364 L11.035 10.155 8.966 10.155 8.966 7.364 C8.966 6.084 8.465 5.437 7.464 5.437 6.559 5.437 6.107 5.983 6.107 7.057 L6.107 12.156 4.026 12.156 4.026 6.903 C4.026 5.829 4.299 4.976 4.849 4.345 5.415 3.714 6.156 3.39 7.077 3.39 8.142 3.39 8.949 3.799 9.482 4.618 L10 5.487 10.519 4.618 C11.052 3.799 11.859 3.39 12.924 3.39 13.844 3.39 14.586 3.714 15.152 4.345 15.701 4.976 15.974 5.829 15.974 6.903 Z" fill="#000000" fill-opacity="1" stroke="none"/>
</svg>
