<?xml version="1.0" encoding="UTF-8"?>
<svg width="857px" height="857px" viewBox="0 0 857 857" xmlns="http://www.w3.org/2000/svg" xmlns:xlink="http://www.w3.org/1999/xlink" version="1.1">
 <!-- Generated by Pixelmator Pro 2.0.3 -->
 <path id="Path" d="M100.721 856.56 C45.601 856.56 0.92 811.879 0.92 756.759 L0.92 100.361 C0.92 45.241 45.601 0.56 100.721 0.56 L757.109 0.56 C812.229 0.56 856.91 45.241 856.91 100.361 L856.91 756.75 C856.92 811.879 812.239 856.56 757.119 856.56 Z M130.971 707.431 L183.08 707.431 385.779 488.451 549.551 707.431 726.869 707.431 483.85 382.501 699.35 149.691 647.24 149.691 460.57 351.361 309.74 149.691 132.42 149.691 362.49 457.322 Z M568.77 669.052 L209.051 188.082 290.51 188.082 650.231 669.052 Z" fill="#000000" fill-opacity="1" stroke="none"/>
</svg>
